<svg xmlns="http://www.w3.org/2000/svg" fill="#000000" width="13" height="13" style=""><rect id="backgroundrect" width="100%" height="100%" x="0" y="0" fill="none" stroke="none"/><g class="currentLayer" style=""><title>Layer 1</title><path d="M2.5,0 C1.1250151000000002,0 0,1.1250151000000002 0,2.5 L0,10.5 C0,11.874985 1.1250151000000002,13 2.5,13 L10.5,13 C11.874985,13 13,11.874985 13,10.5 L13,2.5 C13,1.1250151000000002 11.874985,0 10.5,0 L2.5,0 zM2.5,1 L10.5,1 C11.335015,1 12,1.6649849000000003 12,2.5 L12,10.5 C12,11.335015 11.335015,12 10.5,12 L8.9042969,12 L8.9042969,7.9667969 L10.300781,7.9667969 L10.509765999999999,6.3574219 L8.9042969,6.3574219 L8.9042969,5.3320312 C8.9042969,4.8660312 9.034031,4.5488281 9.707031,4.5488281 L10.566406,4.5488281 L10.566406,3.109375 C10.417406,3.0893750000000004 9.907453,3.046875 9.314453,3.046875 C8.0764531,3.046875 7.230468800000001,3.7958750000000006 7.230468800000001,5.171875 L7.230468800000001,6.3574219 L6,6.3535156 L6,7.9628906 L7.230468800000001,7.9667969 L7.230468800000001,12 L2.5,12 C1.6649849000000003,12 1,11.335015 1,10.5 L1,2.5 C1,1.6649849000000003 1.6649849000000003,1 2.5,1 z" id="svg_1" class="selected" opacity="1" fill="#00ff10" fill-opacity="1"/></g></svg>