<svg xmlns="http://www.w3.org/2000/svg" fill="#000000" width="13" height="13"><rect id="backgroundrect" width="100%" height="100%" x="0" y="0" fill="none" stroke="none" class="" style=""/><g class="currentLayer" style=""><title>Layer 1</title><path d="M3.7734379999999996,0 C1.695313,0 0,1.695313 0,3.7734379999999996 L0,9.230469 C0,11.304688 1.695313,13 3.7734379999999996,13 L9.230469,13 C11.304688,13 13,11.304688 13,9.226563 L13,3.7734379999999996 C13,1.695313 11.304688,0 9.226563,0 zM3.7734379999999996,1 L9.226563,1 C10.765625,1 12,2.234375 12,3.7734379999999996 L12,9.226563 C12,10.765625 10.765625,12 9.230469,12 L3.7734379999999996,12 C2.234375,12 1,10.765625 1,9.230469 L1,3.7734379999999996 C1,2.234375 2.234375,1 3.7734379999999996,1 zM10.5,2 C10.222656,2 10,2.222656 10,2.5 C10,2.7773440000000003 10.222656,3 10.5,3 C10.777344,3 11,2.7773440000000003 11,2.5 C11,2.222656 10.777344,2 10.5,2 zM6.5,3 C4.574219,3 3,4.574219 3,6.5 C3,8.425781 4.574219,10 6.5,10 C8.425781,10 10,8.425781 10,6.5 C10,4.574219 8.425781,3 6.5,3 zM6.5,4 C7.886718999999999,4 9,5.113281 9,6.5 C9,7.886718999999999 7.886718999999999,9 6.5,9 C5.113281,9 4,7.886718999999999 4,6.5 C4,5.113281 5.113281,4 6.5,4 z" id="svg_1" class="" fill="#00ff10" fill-opacity="1"/></g></svg>